<?xml version="1.0" encoding="utf-8"?>
<!-- Generator: Adobe Illustrator 24.1.1, SVG Export Plug-In . SVG Version: 6.00 Build 0)  -->
<svg version="1.1" id="Layer_1" xmlns="http://www.w3.org/2000/svg" xmlns:xlink="http://www.w3.org/1999/xlink" x="0px" y="0px"
	 viewBox="0 0 500 500" style="enable-background:new 0 0 500 500;" xml:space="preserve">
<style type="text/css">
	.st0{fill:#F9AB00;}
	.st1{fill:#E37400;}
</style>
<g id="XMLID_81_">
</g>
<g id="XMLID_87_">
</g>
<g id="XMLID_92_">
</g>
<g id="XMLID_97_">
</g>
<g>
	<path class="st0" d="M475.8,437.2c0,34-27.6,62.7-61.6,62.7c-2.1,0-5.3,0-7.4,0c-31.9-4.3-55.3-32.9-54.2-64.8V65.3
		c-1.1-31.9,22.3-59.5,54.2-64.8c34-4.3,64.8,20.2,69.1,54.2c0,2.1,0,5.3,0,7.4V437.2z"/>
	<path class="st1" d="M85.8,376.7c34,0,61.6,27.6,61.6,61.6c0,34-27.6,61.6-61.6,61.6c-34,0-61.6-27.6-61.6-61.6
		C23.1,404.3,51.8,376.7,85.8,376.7z M248.4,188.6c-34,2.1-60.6,30.8-60.6,64.8v166.8c0,44.6,20.2,72.3,48.9,78.6
		c34,6.4,65.9-14.9,73.3-48.9c1.1-4.3,1.1-8.5,1.1-12.8v-186c0-34-27.6-62.7-61.6-62.7H248.4z"/>
</g>
</svg>
